<?xml version="1.0" encoding="UTF-8"?> <svg xmlns="http://www.w3.org/2000/svg" xmlns:xlink="http://www.w3.org/1999/xlink" version="1.1" id="Layer_1" x="0px" y="0px" viewBox="0 0 158 72" style="enable-background:new 0 0 158 72;" xml:space="preserve"> <style type="text/css"> .st0{fill:#FFFFFF;} </style> <path class="st0" d="M62.4,62c-1.1-0.9-2.1-1.8-3-2.7c-0.9-1-1.7-2.3-2.3-3.9c-0.6-1.6-1.1-3.4-1.6-5.2c-0.5-1.8-1-3.6-1.6-5.3 c-0.6-1.7-1.4-3-2.3-4.1c-0.9-1.1-2.1-1.6-3.6-1.6c-1.1,0-1.9,0.2-2.3,0.5c-0.5,0.3-0.7,0.8-0.8,1.3c-0.1,0.5,0,1.1,0.1,1.7 c0.1,0.6,0.3,1.2,0.4,1.7c-2.7,2-5,4-6.9,6.1c-1.9,2.1-3.4,4.4-4.3,6.8c-0.9,2.4-1.6,5-0.8,7.6c0.6,1.9,3.2,4.8,7.9,4.1 c0.9-0.1,1.7-0.4,2.4-0.7c0.8-0.3,1.4-0.6,1.9-0.9c0.3-0.2,0.8-0.5,1.5-1c0.7-0.5,1.4-1.1,2.2-1.7c0.8-0.6,3.4-2.6,3.7-2.8 c0.6,0.7,1.3,1.5,1.8,2.3c0.5,0.8,1.1,1.5,1.7,2.1c0.6,0.6,1.3,1.2,2.2,1.6c0.8,0.4,1.9,0.6,3.3,0.6c0.5,0,1-0.1,1.7-0.2 c0.7-0.1,1.3-0.3,1.9-0.6c0.6-0.3,1-0.7,1.3-1.2c0.2-0.5,0.3-1.2-0.2-1.8C65.2,63.4,63.5,62.9,62.4,62 M49,56.9 c-0.6,0.9-1.3,1.9-2.3,2.8c-0.9,0.9-1.9,1.7-3,2.4c-1.1,0.7-2.2,1-3.2,1c-0.6,0-1-0.3-1.2-0.8c-0.2-0.5-0.4-1-0.4-1.6 c-0.1-0.5-0.1-0.9-0.1-1.1c0-1.5,0.3-3,1-4.4c0.6-1.5,1.4-2.9,2.4-4.2c1-1.4,4.1-4.4,4.4-4.4c0.6,0.8,1.1,1.7,1.6,2.6 c0.5,0.9,0.9,1.8,1.3,2.7c0.3,0.9,0.5,1.8,0.5,2.8C49.9,55.3,49.6,56,49,56.9"></path> <path class="st0" d="M83.1,22.3c-2.2,0.3-7.5,1-7.8,0.8c-0.2-0.2,0.1-3.2,0.4-6.1c0.3-3,0.7-6.8,0.8-9.7c0-0.7-0.4-1.3-1.3-1.5 c-1.1-0.3-2.7-0.2-3.2,0.6c-2.3,4.2-3.1,12.5-3.5,16c-0.1,0.8-0.2,1.6-0.2,1.7c-0.2,0.2-2,0.5-3.6,0.7c-2.7,0.4-5.7,0.9-6.5,1.5 c-1.2,0.9-0.6,2.4-0.3,3.2c0,0.1,0.1,0.1,0.1,0.2c0.6,1.9,5,1.2,7.8,0.8c1-0.1,2-0.3,2.2-0.2c0,0.2-0.1,0.9-0.2,1.9 c-0.7,6.9-2.9,28,5.9,34.6c1.5,1.1,3.3,2.1,5.9,2.1c0.8,0,1.6-0.1,2.6-0.3c2-0.4,3.4-1.9,3.5-3.1c0.1-0.7-0.2-1.2-0.9-1.5 c-0.4-0.2-2-0.3-3.4-0.5c-0.2,0-0.4,0-0.5,0c-5.5-0.5-7-9.8-7-10.2c-1.3-8.7,0.3-23.6,0.8-24.1c0.2-0.2,1.9-0.5,3.8-0.8 c2.3-0.4,5.3-0.9,8-1.6c1.1-0.3,1.8-1.5,1.6-2.7C87.9,23.7,87.2,21.7,83.1,22.3"></path> <path class="st0" d="M153.1,63.1c-0.7-0.5-1.5-1-2.4-1.3c-2.6-1.1-8.4-4.2-9.8-6.5c-0.2-0.4-0.3-0.8-0.2-1.3 c0.1-0.4,0.6-0.8,1.3-1.2c2.3-1,6.7-3.3,6.9-6c0-4.1-2.6-7.9-7-8.2c-4.2-0.3-11.4,3.9-11.7,3.4c-0.3-0.4,1-18.6,1.1-20.8 c0.1-2.3,0.2-12.1-0.2-14.3c-0.5-2.6-3.7-1.6-4.2-0.2c-2.2,6.8-2,29.4-2.2,36.4c-0.2,6.3-0.5,14.3,0.6,20.5c0.3,1.7,0.9,3,1.7,4.1 c1.8,2.3,6.5,1.6,6.5-0.6c0-1.8-1.9-3.7-3.1-6.4c-1.2-2.8-1.2-4.1-1.2-4.3c0,0,7.1,0.5,16.5,10.5c1.6,1.7,3.3,2.1,4.5,2.1 c3.1,0,3.9-3.5,3.9-4C154.1,64.2,153.7,63.6,153.1,63.1 M138.6,49.7c-2.3,1.7-8.4,3.3-9.4,3.8c0,0,0-0.8,0.1-1.2 c0.2-2.8-0.3-3.3,1.9-4.7c1.7-1,9.8-5.9,9.8-0.6C140.8,48,139.4,49.1,138.6,49.7"></path> <path class="st0" d="M22.5,44.1c-6.4-0.5-11,2.5-11,3.4c0.8-18.1,1.9-22.8,0.8-33.9c-0.7-7.1-1.7-8.7-3.7-8.7 c-1.7,0-2.4,2.1-2.1,6.2c1.7,32.6-2,46-2.3,47.4C3,64.4,6,68.9,12.9,69.2c0.1,0,4.6,0,6.5-0.7c1.9-0.7,3.7-1.7,5.1-3.1 C30.8,59,33.5,44.9,22.5,44.1 M18.7,61.6c-1.1,0.8-1.9,1.3-3.5,1.7c-3,0.7-4.5-0.4-5-2.9c-0.4-2.6,0-6.4,3-7.6 C25.4,46.9,25.1,57.2,18.7,61.6"></path> <path class="st0" d="M118.5,62c-1.1-0.9-2.1-1.8-3-2.7c-0.9-1-1.7-2.3-2.3-3.9c-0.6-1.6-1.1-3.4-1.6-5.2c-0.5-1.8-1-3.6-1.6-5.3 c-0.6-1.7-1.4-3-2.3-4.1c-0.9-1.1-2.1-1.6-3.6-1.6c-1.1,0-1.9,0.2-2.3,0.5c-0.5,0.3-0.7,0.8-0.8,1.3c-0.1,0.5,0,1.1,0.1,1.7 c0.1,0.6,0.3,1.2,0.4,1.7c-2.7,2-5,4-6.9,6.1c-1.9,2.1-3.4,4.4-4.3,6.8c-0.9,2.4-1.6,5-0.8,7.6c0.6,1.9,3.2,4.8,7.9,4.1 c0.9-0.1,1.7-0.4,2.4-0.7c0.8-0.3,1.4-0.6,1.9-0.9c0.3-0.2,0.8-0.5,1.5-1c0.7-0.5,1.4-1.1,2.2-1.7c0.8-0.6,3.4-2.6,3.7-2.8 c0.6,0.7,1.3,1.5,1.8,2.3c0.5,0.8,1.1,1.5,1.7,2.1c0.6,0.6,1.3,1.2,2.2,1.6c0.8,0.4,1.9,0.6,3.3,0.6c0.5,0,1-0.1,1.7-0.2 c0.7-0.1,1.3-0.3,1.9-0.6c0.6-0.3,1-0.7,1.3-1.2c0.2-0.5,0.3-1.2-0.2-1.8C121.2,63.4,119.6,62.9,118.5,62 M105.1,56.9 c-0.6,0.9-1.3,1.9-2.3,2.8c-0.9,0.9-1.9,1.7-3,2.4c-1.1,0.7-2.2,1-3.2,1c-0.6,0-1-0.3-1.2-0.8c-0.2-0.5-0.4-1-0.4-1.6 c-0.1-0.5-0.1-0.9-0.1-1.1c0-1.5,0.3-3,1-4.4c0.6-1.5,1.4-2.9,2.4-4.2c1-1.4,4.1-4.4,4.4-4.4c0.6,0.8,1.1,1.7,1.6,2.6 c0.5,0.9,0.9,1.8,1.3,2.7c0.3,0.9,0.5,1.8,0.5,2.8C106,55.3,105.7,56,105.1,56.9"></path> </svg> 